<svg xmlns="http://www.w3.org/2000/svg">

    <symbol id="php" viewBox="0 0 512 512">
        <path fill="#8f9ed1" d="M512 256c0 15.48-1.38 30.65-4.01 45.37C486.58 421.12 381.9 512 256 512c-94.86 0-177.66-51.59-221.88-128.24a254 254 0 0 1-25.1-60.16A255.84 255.84 0 0 1 0 256C0 114.62 114.61 0 256 0c116.7 0 215.14 78.08 245.98 184.84A256.23 256.23 0 0 1 512 256z" />
        <path fill="#f2f2f2" d="M130.17 178.24H35.9L9.03 323.6a254 254 0 0 0 25.09 60.15h8.74l10.4-56.3h51.82c63.08 0 80.03-56.63 84.1-84.45a57.7 57.7 0 0 0-59-64.77zm13.68 69.46c-2.3 15.77-13.96 47.88-49.71 47.88H59.15l15.63-84.6h35.6c34.7 0 35.77 20.96 33.46 36.72zM501.98 184.84c-8.02-4.14-17.57-6.6-28.6-6.6H379.1l-37.98 205.52h44.95l10.4-56.3h51.81c28.06 0 46.99-11.2 59.7-26.09A257.37 257.37 0 0 0 512 256c0-24.7-3.5-48.57-10.02-71.16zm-14.92 62.86c-2.31 15.77-13.96 47.88-49.73 47.88h-34.96l15.63-84.6h35.6c34.7 0 35.77 20.96 33.46 36.72zM309.24 178.92h-54.6l10.25-55.45h-44.77l-37.98 205.51h44.77l21.84-118.18h28.6c19 0 31.89 4.07 29.17 21.7-2.7 17.64-18.3 95.64-18.3 95.64h45.43S351.3 241.32 354 216.9c2.72-24.42-19.67-37.98-44.76-37.98z"/>
    </symbol>

    <symbol id="java" viewBox="0 0 512 512">
        <g fill="#db380e">
            <path d="M253 95c-23 17-50 35-64 67-25 54 51 113 54 116a4 4 0 0 0 6-5c0-1-27-54-26-92 0-13 19-28 38-44 18-15 39-31 50-50 27-43-2-85-3-85a4 4 0 0 0-7 3s5 28-10 56c-7 12-21 22-38 34z"/>
            <path d="M353 114a4 4 0 0 0-4-8c-4 2-98 38-98 82 0 31 13 47 22 58l8 12c3 10-4 28-7 33a4 4 0 0 0 6 6c2-1 40-28 33-61-2-12-9-21-14-29-8-12-14-21-5-38 11-19 59-55 59-55z"/>
        </g>
        <g fill="#73a1fb">
            <path d="M107 298c-1 5 0 10 3 14 10 14 46 22 102 22h23c89-3 122-31 124-32a4 4 0 0 0-4-8 612 612 0 0 1-205 6c3-4 21-11 43-15a4 4 0 0 0-1-8c-13 0-78 1-85 21zM405 270c-19 0-36 9-37 9a4 4 0 0 0 2 8c1 0 39 1 43 23 3 19-37 50-52 60a4 4 0 0 0 3 8c4-1 90-20 81-71-5-31-25-37-40-37zM345 364c1-2 0-4-1-4l-21-15-4-1s-22 6-53 10l-41 2c-31 0-52-4-55-7v-1l5-4a4 4 0 0 0-2-8c-21 5-31 12-31 21 2 16 38 24 69 26h14a596 596 0 0 0 120-19zM189 397a4 4 0 0 0-3-7c-3 0-27 1-29 17 0 4 1 8 4 12 9 11 33 17 73 19a240 240 0 0 0 101-16 4 4 0 0 0 0-7l-26-16-3-1a673 673 0 0 1-60 8c-25 0-53-4-58-7l1-2z"/>
            <path d="M224 487c117 0 180-21 192-34 4-5 5-9 4-12 0-7-7-11-8-12s-4-1-5 1v5c1 1 1 3-1 5a674 674 0 0 1-302 7c3-3 21-9 41-13a4 4 0 0 0-1-8h-5c-33 2-71 7-73 24 0 5 1 9 5 14 9 10 34 23 153 23z"/>
            <path d="M439 457c-2-1-4-1-5 1 0 0-18 18-70 29-21 4-59 6-113 6-55 0-107-2-108-2-2 0-4 1-4 3 0 3 1 5 3 5a625 625 0 0 0 234 4c61-10 65-41 65-42 1-2 0-4-2-4z"/>
        </g>
    </symbol>

    <symbol id="swift" viewBox="0 0 512 512">
            <path d="M512 256a255 255 0 0 1-256 256A256 256 0 0 1 59 93l1-2a255 255 0 0 1 452 165z" fill="currentColor" />
            <path d="M460 411l-9 11c-9-15-23-29-45-32-45-5-63 25-110 31C109 445 10 285 10 285c80 61 188 75 258 30h-1C176 250 81 123 59 93l-5-7a1409 1409 0 0 0 183 138C165 152 109 64 109 62c95 105 220 180 220 180 40-121-42-215-43-216 1 1 97 55 132 160 17 49 13 92 3 124 32 35 40 76 39 101z" fill="#f2f2f2"/>
    </symbol>

    <symbol id="typescript" viewBox="0 0 512 512">
        <path d="M512 256a256 256 0 1 1-512 0 256 256 0 0 1 512 0z" fill="#0078cf" />
        <path fill="#fff" d="M503 323c-13 50-41 94-79 127h-12c-53 0-83-33-97-58l48-29s16 35 47 35 43-11 43-34c0-29-99-39-115-88-15-50 5-119 77-114 45 3 70 25 83 41l-48 35c-10-30-52-30-61-5-8 24 20 39 63 53 22 7 40 21 51 37zM301 170H83v51h80v223h58V221h80z"/>
    </symbol>

</svg>