<svg xmlns="http://www.w3.org/2000/svg">

<symbol id="mit" width="256" height="256">
  <path d="M245.467 134.782a113.137 109.096 0 1 1 0-.002" transform="matrix(1.05723 0 0 1.09302 -12.041 -18.814)" fill="#fff" stroke="#000" stroke-width="15.349" stroke-linecap="round"/>
  <text style="line-height:125%;text-align:start;" x="35" y="870" transform="matrix(.8908 0 0 1.12258 0 -796.362)" font-family="Arial" font-size="124" font-weight="700">MIT</text>
</symbol>

<symbol id="checkmark" viewBox="0 0 12 16">
    <path fill-rule="evenodd" d="M12 5l-8 8-4-4 1.5-1.5L4 10l6.5-6.5L12 5z"></path>
</symbol>

<symbol id="xmark" viewBox="0 0 12 16">
    <path fill-rule="evenodd" d="M7.48 8l3.75 3.75-1.48 1.48L6 9.48l-3.75 3.75-1.48-1.48L4.52 8 .77 4.25l1.48-1.48L6 6.52l3.75-3.75 1.48 1.48L7.48 8z"></path>
</symbol>

<symbol id="scales" viewBox="0 0 26 26">
        <path d="M19,24.968v1H7v-1c0-0.551,0.449-1,1-1h2.013c0.053-1.248,0.863-2.29,1.987-2.689V9.554 c-0.527-0.333-0.88-0.917-0.88-1.587H12h2h0.88c0,0.67-0.353,1.254-0.88,1.587v11.724c1.124,0.399,1.934,1.441,1.987,2.689H18 C18.551,23.968,19,24.417,19,24.968z M26,15.967c-0.733,2.064-2.685,3.553-5,3.553s-4.267-1.49-5-3.553h1.154l3.378-8.953 c0.146-0.39,0.789-0.39,0.936,0l3.378,8.953H26z M23.777,15.967L21,8.608l-2.777,7.36H23.777z M5,5.978 c0.453,0,0.822-0.303,0.95-0.714c0.331-0.126,0.67-0.296,1.018-0.472C7.733,4.406,8.6,3.967,9.5,3.967 c0.864,0,1.404,0.399,1.713,0.739c-0.012,0.086-0.026,0.172-0.026,0.261c0,1.001,0.812,1.813,1.813,1.813s1.813-0.812,1.813-1.813 c0-0.089-0.014-0.174-0.026-0.26c0.308-0.339,0.848-0.74,1.713-0.74c0.9,0,1.767,0.438,2.531,0.824 c0.349,0.176,0.688,0.346,1.019,0.472c0.128,0.411,0.497,0.714,0.95,0.714c0.558,0,1.01-0.452,1.01-1.01s-0.452-1.01-1.01-1.01 c-0.288,0-0.545,0.124-0.729,0.318c-0.247-0.104-0.514-0.237-0.789-0.376c-0.864-0.437-1.843-0.932-2.982-0.932 c-0.996,0-1.69,0.379-2.161,0.787c-0.211-0.233-0.481-0.407-0.788-0.506c0.373-0.2,0.635-0.581,0.635-1.032 C14.186,1.561,13,0.032,13,0.032s-1.186,1.529-1.186,2.184c0,0.452,0.262,0.832,0.635,1.032c-0.307,0.098-0.577,0.273-0.788,0.506 C11.19,3.346,10.496,2.967,9.5,2.967c-1.139,0-2.119,0.495-2.983,0.932C6.242,4.039,5.976,4.172,5.729,4.275 C5.545,4.082,5.288,3.957,5,3.957c-0.558,0-1.01,0.452-1.01,1.01S4.442,5.978,5,5.978z M5,19.521c-2.315,0-4.267-1.49-5-3.553 h1.154l3.378-8.953c0.146-0.39,0.789-0.39,0.936,0l3.378,8.953H10C9.267,18.031,7.315,19.521,5,19.521z M7.777,15.967L5,8.608 l-2.777,7.36H7.777z"/>
</symbol>

<symbol id="translate" viewBox="0 0 469 469">
    <path d="M253 300l-54-53 1-1c37-41 63-89 79-139h62V64H192V21h-43v43H0v42h238c-14 42-37 81-67 115-20-22-37-46-50-72H79c15 35 37 68 63 98L34 354l30 30 107-107 66 67 16-44zM373 192h-42l-96 256h42l24-64h102l24 64h42l-96-256zm-56 149l35-92 35 92h-70z"/>
</symbol>

</svg>