<svg xmlns="http://www.w3.org/2000/svg">

    <symbol id="php" viewBox="0 0 512 512">
        <path fill="#8f9ed1" d="M512 256c0 15.48-1.38 30.65-4.01 45.37C486.58 421.12 381.9 512 256 512c-94.86 0-177.66-51.59-221.88-128.24a254 254 0 0 1-25.1-60.16A255.84 255.84 0 0 1 0 256C0 114.62 114.61 0 256 0c116.7 0 215.14 78.08 245.98 184.84A256.23 256.23 0 0 1 512 256z" />
        <path fill="#f2f2f2" d="M130.17 178.24H35.9L9.03 323.6a254 254 0 0 0 25.09 60.15h8.74l10.4-56.3h51.82c63.08 0 80.03-56.63 84.1-84.45a57.7 57.7 0 0 0-59-64.77zm13.68 69.46c-2.3 15.77-13.96 47.88-49.71 47.88H59.15l15.63-84.6h35.6c34.7 0 35.77 20.96 33.46 36.72zM501.98 184.84c-8.02-4.14-17.57-6.6-28.6-6.6H379.1l-37.98 205.52h44.95l10.4-56.3h51.81c28.06 0 46.99-11.2 59.7-26.09A257.37 257.37 0 0 0 512 256c0-24.7-3.5-48.57-10.02-71.16zm-14.92 62.86c-2.31 15.77-13.96 47.88-49.73 47.88h-34.96l15.63-84.6h35.6c34.7 0 35.77 20.96 33.46 36.72zM309.24 178.92h-54.6l10.25-55.45h-44.77l-37.98 205.51h44.77l21.84-118.18h28.6c19 0 31.89 4.07 29.17 21.7-2.7 17.64-18.3 95.64-18.3 95.64h45.43S351.3 241.32 354 216.9c2.72-24.42-19.67-37.98-44.76-37.98z"/>
    </symbol>

    <symbol id="python" viewBox="0 0 512 512">
        <path d="M512 256a255 255 0 0 1-48 150 257 257 0 0 1-150 99 257 257 0 1 1 198-249z" fill="#264d6f"/>
        <path d="M372 112v126c0 30-24 54-54 54H189c-37 0-68 30-68 68v62H79c-8 0-15-2-22-5-21-25-36-55-46-87l-1-25c0-79 31-117 69-117h178v-18H138v-58c0-30 53-53 117-53s117 23 117 53z" fill="#3876ac"/>
        <circle cx="189" cy="117" r="22" fill="#f2f2f2"/>
        <path d="M503 298l-2 33c-8 27-21 52-37 75-9 6-20 9-30 9H256v18h118v50a253 253 0 0 1-60 22 257 257 0 0 1-173-20V365c0-30 24-54 53-54h130c37 0 67-30 67-68v-62h43c38 0 69 38 69 117z" fill="#f7cd00"/>
        <path d="M345 486c0 4-1 8-3 11-9 4-19 6-28 8a21 21 0 1 1 31-19z" fill="#f2f2f2"/>
    </symbol>

    <symbol id="java" viewBox="0 0 512 512">
        <g fill="#db380e">
            <path d="M253 95c-23 17-50 35-64 67-25 54 51 113 54 116a4 4 0 0 0 6-5c0-1-27-54-26-92 0-13 19-28 38-44 18-15 39-31 50-50 27-43-2-85-3-85a4 4 0 0 0-7 3s5 28-10 56c-7 12-21 22-38 34z"/>
            <path d="M353 114a4 4 0 0 0-4-8c-4 2-98 38-98 82 0 31 13 47 22 58l8 12c3 10-4 28-7 33a4 4 0 0 0 6 6c2-1 40-28 33-61-2-12-9-21-14-29-8-12-14-21-5-38 11-19 59-55 59-55z"/>
        </g>
        <g fill="#73a1fb">
            <path d="M107 298c-1 5 0 10 3 14 10 14 46 22 102 22h23c89-3 122-31 124-32a4 4 0 0 0-4-8 612 612 0 0 1-205 6c3-4 21-11 43-15a4 4 0 0 0-1-8c-13 0-78 1-85 21zM405 270c-19 0-36 9-37 9a4 4 0 0 0 2 8c1 0 39 1 43 23 3 19-37 50-52 60a4 4 0 0 0 3 8c4-1 90-20 81-71-5-31-25-37-40-37zM345 364c1-2 0-4-1-4l-21-15-4-1s-22 6-53 10l-41 2c-31 0-52-4-55-7v-1l5-4a4 4 0 0 0-2-8c-21 5-31 12-31 21 2 16 38 24 69 26h14a596 596 0 0 0 120-19zM189 397a4 4 0 0 0-3-7c-3 0-27 1-29 17 0 4 1 8 4 12 9 11 33 17 73 19a240 240 0 0 0 101-16 4 4 0 0 0 0-7l-26-16-3-1a673 673 0 0 1-60 8c-25 0-53-4-58-7l1-2z"/>
            <path d="M224 487c117 0 180-21 192-34 4-5 5-9 4-12 0-7-7-11-8-12s-4-1-5 1v5c1 1 1 3-1 5a674 674 0 0 1-302 7c3-3 21-9 41-13a4 4 0 0 0-1-8h-5c-33 2-71 7-73 24 0 5 1 9 5 14 9 10 34 23 153 23z"/>
            <path d="M439 457c-2-1-4-1-5 1 0 0-18 18-70 29-21 4-59 6-113 6-55 0-107-2-108-2-2 0-4 1-4 3 0 3 1 5 3 5a625 625 0 0 0 234 4c61-10 65-41 65-42 1-2 0-4-2-4z"/>
        </g>
    </symbol>

    <symbol id="ruby" viewBox="0 0 512 512">
        <path fill="#900" d="M494 161c-2 13-6 27-12 41L372 482 76 413a143 143 0 0 1-29-9c-18-25-31-54-39-84l4-16c7-27 21-73 38-97l2 56 110 7 149-71 65-95-29-46a613 613 0 0 1 106 34c19 10 23 15 23 15 6 6 11 12 14 19 4 10 5 22 4 35z" />
        <ellipse fill="#E01" transform="scale(-1) rotate(63 260 -338)" cx="208" cy="160" rx="74" ry="167" />
        <path fill="#F65" d="M301 369l71 113-186-73c37-7 76-21 115-40zM50 207l2 56-40 41c7-27 21-73 38-97z"/>
        <path fill="#901" d="M52 263l-34 87-10-30 4-16 40-41zM376 104l118 57c-2 13-6 27-12 41l-18 32-88-130z"/>
        <path fill="#E01" d="M482 202L372 482l28-178a353 353 0 0 0 82-102z"/>
        <path fill="#E01" d="M376 104l88 130-153-35z"/>
        <path fill="#F65" d="M444 89l-68 15-29-46c48 12 78 22 97 31z" />
        <path fill="#901" d="M311 199l89 105a476 476 0 0 1-99 65l10-170z" />
        <path fill="#e01" d="M311 199l-10 170-139-99z"/>
        <path fill="#901" d="M162 270l139 99c-39 19-78 33-115 40l-24-139z" />
        <path fill="#F65" d="M162 270L66 411 52 263z"/>
    </symbol>

</svg>