<svg xmlns="http://www.w3.org/2000/svg" xmlns:xlink="http://www.w3.org/1999/xlink">

    <symbol id="python" viewBox="0 0 128 128">
        <path fill="#FFD845" d="M49.33 62h29.159c8.117 0 14.511-6.868 14.511-15.019v-27.798c0-7.912-6.632-13.856-14.555-15.176-5.014-.835-10.195-1.215-15.187-1.191-4.99.023-9.612.448-13.805 1.191-12.355 2.181-14.453 6.751-14.453 15.176v10.817h29v4h-40.224000000000004c-8.484 0-15.914 5.108-18.237 14.811-2.681 11.12-2.8 17.919 0 29.53 2.075 8.642 7.03 14.659 15.515 14.659h9.946v-13.048c0-9.637 8.428-17.952 18.33-17.952zm-1.838-39.11c-3.026 0-5.478-2.479-5.478-5.545 0-3.079 2.451-5.581 5.478-5.581 3.015 0 5.479 2.502 5.479 5.581-.001 3.066-2.465 5.545-5.479 5.545zM122.281 48.811c-2.098-8.448-6.103-14.811-14.599-14.811h-10.682v12.981c0 10.05-8.794 18.019-18.511 18.019h-29.159c-7.988 0-14.33 7.326-14.33 15.326v27.8c0 7.91 6.745 12.564 14.462 14.834 9.242 2.717 17.994 3.208 29.051 0 7.349-2.129 14.487-6.411 14.487-14.834v-11.126h-29v-4h43.682c8.484 0 11.647-5.776 14.599-14.66 3.047-9.145 2.916-17.799 0-29.529zm-41.955 55.606c3.027 0 5.479 2.479 5.479 5.547 0 3.076-2.451 5.579-5.479 5.579-3.015 0-5.478-2.502-5.478-5.579 0-3.068 2.463-5.547 5.478-5.547z"></path>
    </symbol>

    <svg id="php" viewBox="0 0 128 128">
        <path fill="#6181B6" d="M64 33.039c-33.74 0-61.094 13.862-61.094 30.961s27.354 30.961 61.094 30.961 61.094-13.862 61.094-30.961-27.354-30.961-61.094-30.961zm-15.897 36.993c-1.458 1.364-3.077 1.927-4.86 2.507-1.783.581-4.052.461-6.811.461h-6.253l-1.733 10h-7.301l6.515-34h14.04c4.224 0 7.305 1.215 9.242 3.432 1.937 2.217 2.519 5.364 1.747 9.337-.319 1.637-.856 3.159-1.614 4.515-.759 1.357-1.75 2.624-2.972 3.748zm21.311 2.968l2.881-14.42c.328-1.688.208-2.942-.361-3.555-.57-.614-1.782-1.025-3.635-1.025h-5.79l-3.731 19h-7.244l6.515-33h7.244l-1.732 9h6.453c4.061 0 6.861.815 8.402 2.231s2.003 3.356 1.387 6.528l-3.031 15.241h-7.358zm40.259-11.178c-.318 1.637-.856 3.133-1.613 4.488-.758 1.357-1.748 2.598-2.971 3.722-1.458 1.364-3.078 1.927-4.86 2.507-1.782.581-4.053.461-6.812.461h-6.253l-1.732 10h-7.301l6.514-34h14.041c4.224 0 7.305 1.215 9.241 3.432 1.935 2.217 2.518 5.418 1.746 9.39zM95.919 54h-5.001l-2.727 14h4.442c2.942 0 5.136-.29 6.576-1.4 1.442-1.108 2.413-2.828 2.918-5.421.484-2.491.264-4.434-.66-5.458-.925-1.024-2.774-1.721-5.548-1.721zM38.934 54h-5.002l-2.727 14h4.441c2.943 0 5.136-.29 6.577-1.4 1.441-1.108 2.413-2.828 2.917-5.421.484-2.491.264-4.434-.66-5.458s-2.772-1.721-5.546-1.721z"></path>
    </svg>

    <symbol id="java" viewBox="0 0 128 128">
        <path fill="#EA2D2E" d="M47.617 98.12c-19.192 5.362 11.677 16.439 36.115 5.969-4.003-1.556-6.874-3.351-6.874-3.351-10.897 2.06-15.952 2.222-25.844 1.092-8.164-.935-3.397-3.71-3.397-3.71zM80.806 87.66c-14.444 2.779-22.787 2.69-33.354 1.6-8.171-.845-2.822-4.805-2.822-4.805-21.137 7.016 11.767 14.977 41.309 6.336-3.14-1.106-5.133-3.131-5.133-3.131zM92.125 27.085c.001 0-42.731 10.669-22.323 34.187 6.024 6.935-1.58 13.17-1.58 13.17s15.289-7.891 8.269-17.777c-6.559-9.215-11.587-13.793 15.634-29.58zM102.123 108.229s3.529 2.91-3.888 5.159c-14.102 4.272-58.706 5.56-71.095.171-4.45-1.938 3.899-4.625 6.526-5.192 2.739-.593 4.303-.485 4.303-.485-4.952-3.487-32.013 6.85-13.742 9.815 49.821 8.076 90.817-3.637 77.896-9.468zM85 77.896c2.395-1.634 5.703-3.053 5.703-3.053s-9.424 1.685-18.813 2.474c-11.494.964-23.823 1.154-30.012.326-14.652-1.959 8.033-7.348 8.033-7.348s-8.812-.596-19.644 4.644c-12.812 6.195 31.691 9.019 54.733 2.957zM90.609 93.041c-.108.29-.468.616-.468.616 31.273-8.221 19.775-28.979 4.822-23.725-1.312.464-2 1.543-2 1.543s.829-.334 2.678-.72c7.559-1.575 18.389 10.119-5.032 22.286zM64.181 70.069c-4.614-10.429-20.26-19.553.007-35.559 25.271-19.947 12.304-32.923 12.304-32.923 5.23 20.608-18.451 26.833-26.999 39.667-5.821 8.745 2.857 18.142 14.688 28.815zM91.455 121.817c-19.187 3.612-42.854 3.191-56.887.874 0 0 2.874 2.38 17.646 3.331 22.476 1.437 57-.8 57.816-11.436.001 0-1.57 4.032-18.575 7.231z"></path>
    </symbol>

    <symbol id="ruby" viewBox="0 0 128 128">
        <path fill-rule="evenodd" clip-rule="evenodd" fill="#D91404" d="M35.971 111.33c27.466 3.75 54.444 7.433 81.958 11.188-9.374-15.606-18.507-30.813-27.713-46.144l-54.245 34.956zM125.681 24.947c-2.421 3.636-4.847 7.269-7.265 10.907-8.304 12.493-16.607 24.986-24.903 37.485-.462.696-1.061 1.248-.41 2.321 8.016 13.237 15.969 26.513 23.942 39.777 1.258 2.095 2.53 4.182 4.157 6.192 1.612-32.193 3.223-64.387 4.834-96.58l-.355-.102zM16.252 66.22c.375.355 1.311.562 1.747.347 7.689-3.779 15.427-7.474 22.948-11.564 2.453-1.333 4.339-3.723 6.452-5.661 6.997-6.417 13.983-12.847 20.966-19.278.427-.395.933-.777 1.188-1.275 2.508-4.902 4.973-9.829 7.525-14.898-3.043-1.144-5.928-2.263-8.849-3.281-.396-.138-1.02.136-1.449.375-6.761 3.777-13.649 7.353-20.195 11.472-3.275 2.061-5.943 5.098-8.843 7.743-4.674 4.266-9.342 8.542-13.948 12.882-1.222 1.152-2.336 2.468-3.288 3.854-3.15 4.587-6.206 9.24-9.402 14.025 1.786 1.847 3.41 3.613 5.148 5.259zM44.354 59.949c-3.825 16.159-7.627 32.227-11.556 48.823 18.423-11.871 36.421-23.468 54.3-34.987-14.228-4.605-28.41-9.196-42.744-13.836zM120.985 25.103c-15.566 2.601-30.76 5.139-46.15 7.71 5.242 12.751 10.379 25.246 15.662 38.096 10.221-15.359 20.24-30.41 30.488-45.806zM44.996 56.644c14.017 4.55 27.755 9.01 41.892 13.6-5.25-12.79-10.32-25.133-15.495-37.737-8.815 8.059-17.498 15.999-26.397 24.137zM16.831 75.643c-4.971 11.883-9.773 23.362-14.662 35.048 9.396-.278 18.504-.547 27.925-.825-4.423-11.412-8.759-22.6-13.263-34.223zM30.424 101.739l.346-.076c3.353-13.941 6.754-27.786 10.177-42.272-7.636 3.969-14.92 7.754-22.403 11.644 3.819 9.926 7.891 20.397 11.88 30.704zM115.351 22.842c-4.459-1.181-8.918-2.366-13.379-3.539-6.412-1.686-12.829-3.351-19.237-5.052-.801-.213-1.38-.352-1.851.613-2.265 4.64-4.6 9.245-6.901 13.868-.071.143-.056.328-.111.687 13.886-2.104 27.679-4.195 41.47-6.285l.009-.292zM89.482 12.288l36.343 10.054c-2.084-5.939-4.017-11.446-6.005-17.11l-30.285 6.715-.053.341zM33.505 114.007c-4.501-.519-9.122-.042-13.687.037-3.75.063-7.5.206-11.25.323-.386.012-.771.09-1.156.506 31.003 2.866 62.005 5.732 93.007 8.6l.063-.414c-9.938-1.357-19.877-2.714-29.815-4.07-12.384-1.691-24.747-3.551-37.162-4.982zM2.782 99.994c3.995-9.27 7.973-18.546 11.984-27.809.401-.929.37-1.56-.415-2.308-1.678-1.597-3.237-3.318-5.071-5.226-2.479 12.24-4.897 24.177-7.317 36.113l.271.127c.185-.297.411-.578.548-.897zM81.522 9.841c6.737-1.738 13.572-3.097 20.367-4.613.44-.099.87-.244 1.303-.368l-.067-.332c-9.571 1.287-19.141 2.575-29.194 3.928 2.741 1.197 4.853 2.091 7.591 1.385z"></path>
    </symbol>

</svg>