<?xml version="1.0" encoding="iso-8859-1"?>
<!-- Generator: Adobe Illustrator 19.0.0, SVG Export Plug-In . SVG Version: 6.00 Build 0)  -->
<svg version="1.1" id="Layer_1" xmlns="http://www.w3.org/2000/svg" xmlns:xlink="http://www.w3.org/1999/xlink" x="0px" y="0px"
	 viewBox="0 0 512 512" style="enable-background:new 0 0 512 512;" xml:space="preserve">
<path style="fill:#472323;" d="M256.001,0c-30.857,0-110.857,24-128,128s-27.429,228.571-27.429,228.571h155.429V0z"/>
<path style="fill:#5B362C;" d="M256.001,0c30.857,0,110.857,24,128,128c17.143,104,27.429,228.571,27.429,228.571H256.001V0z"/>
<path style="fill:#FFC69F;" d="M365.715,329.143l-8.673-2.891c-11.2-3.734-18.755-14.215-18.755-26.022v-25.944l9.143-9.143
	l-9.143-0.65l-82.286,36.571l-82.286-36.571l-9.143,0.65l9.143,9.143v25.945c0,11.807-7.554,22.287-18.755,26.022l-8.673,2.89
	c0,0-20,70.857,18.286,82.286s91.429,82.286,91.429,82.286s53.143-70.857,91.429-82.286S365.715,329.143,365.715,329.143z"/>
<path style="fill:#FFB98F;" d="M157.143,351.429c122.286,14.286,181.143-74.813,181.143-74.813l-12.155-6.721l-70.13,31.17
	l-82.286-36.571l-9.143,0.649l9.143,9.143v25.944c0,11.807-7.554,22.288-18.755,26.023l-8.673,2.89c0,0-2.398,8.641-3.943,20.295
	C147.068,350.143,151.94,350.822,157.143,351.429z"/>
<path style="fill:#FFD5B2;" d="M335.401,278.616l-49.949,31.785c-17.969,11.435-40.934,11.435-58.903,0l-49.949-31.785
	c-13.186-8.392-21.171-22.938-21.171-38.568V137.143c0-55.544,45.027-100.571,100.571-100.571l0,0
	c55.544,0,100.571,45.027,100.571,100.571v102.905C356.572,255.678,348.587,270.224,335.401,278.616z"/>
<g>
	<path style="fill:#FFC69F;" d="M356.572,164.571c-58-18.286-59.714-56.286-100.571-91.429l100.571,27.429V164.571z"/>
	<path style="fill:#FFC69F;" d="M237.41,315.587c-19.846-14.627-33.369-40.17-40.209-55.658c-3.473-7.865-5.201-16.346-5.201-24.945
		V91.429l-29.913,9.971c-4.235,11.12-6.657,23.136-6.657,35.743v102.906c0,15.63,7.985,30.176,21.171,38.567l49.949,31.785
		C229.997,312.595,233.666,314.234,237.41,315.587z"/>
</g>
<g>
	<path style="fill:#472323;" d="M210.286,201.143L210.286,201.143c-5.049,0-9.143-4.094-9.143-9.143v-9.143
		c0-5.049,4.094-9.143,9.143-9.143l0,0c5.049,0,9.143,4.094,9.143,9.143V192C219.429,197.049,215.335,201.143,210.286,201.143z"/>
	<path style="fill:#472323;" d="M301.715,201.143L301.715,201.143c-5.049,0-9.143-4.094-9.143-9.143v-9.143
		c0-5.049,4.094-9.143,9.143-9.143l0,0c5.049,0,9.143,4.094,9.143,9.143V192C310.858,197.049,306.764,201.143,301.715,201.143z"/>
</g>
<path style="fill:#503445;" d="M155.429,338.286l69.534,23.178c7.981,2.661,14.134,9.087,16.445,17.175l14.593,51.075l14.593-51.075
	c2.311-8.088,8.464-14.514,16.445-17.175l69.534-23.178L320.001,512h-128L155.429,338.286z"/>
<polygon style="fill:#462D3E;" points="356.572,338.286 246.858,512 338.286,512 "/>
<polygon style="fill:#744B3A;" points="369.17,358.553 175.942,512 192.001,512 205.353,512 380.546,372.875 "/>
<path style="fill:#5B362C;" d="M297.086,445.824c-0.527,0-1.058-0.035-1.59-0.098c-3.639-0.41-6.897-2.223-9.178-5.089l-4.067-5.134
	c-2.281-2.866-3.304-6.455-2.883-10.089c0.415-3.643,2.227-6.902,5.098-9.169l17.991-14.295c5.911-4.714,14.562-3.714,19.272,2.206
	l4.067,5.117c2.281,2.875,3.304,6.464,2.883,10.107c-0.421,3.643-2.227,6.902-5.098,9.169l-17.995,14.295
	C303.14,444.789,300.166,445.824,297.086,445.824z M310.983,408.119c-1,0-2,0.321-2.839,0.991l-17.995,14.295
	c-0.96,0.759-1.562,1.839-1.701,3.054c-0.138,1.206,0.201,2.402,0.965,3.358l4.067,5.134c0.759,0.955,1.848,1.553,3.058,1.696
	c1.227,0.117,2.406-0.206,3.361-0.965l0,0l18-14.295c0.96-0.759,1.562-1.839,1.701-3.054c0.138-1.215-0.201-2.41-0.965-3.366
	l-4.067-5.117C313.667,408.709,312.332,408.119,310.983,408.119z"/>
<path style="fill:#A98262;" d="M284.765,442.03c-1.349,0-2.683-0.59-3.585-1.723c-1.571-1.982-1.241-4.857,0.737-6.429
	l15.237-12.107c1.969-1.581,4.853-1.25,6.424,0.733c1.571,1.983,1.241,4.857-0.737,6.429l-15.237,12.107
	C286.765,441.709,285.761,442.03,284.765,442.03z"/>
<path style="fill:#472323;" d="M256.001,73.143c0,0-100.571,31.002-100.571,91.429c0,0.001,0,75.478,0,75.477l-18.286-29.762
	l9.143-109.714l54.857-64l54.857-9.143V73.143z"/>
<path style="fill:#5B362C;" d="M256.001,73.143c41.905,20.571,60.191,65.523,109.714,82.286
	c37.889,12.824-9.143,84.619-9.143,84.619l18.286-29.762l-9.143-118.857l-82.286-64h-27.429V73.143z"/>
<path style="fill:#B1693C;" d="M224.915,246.857l-9.144,22.859c-2.595,6.491-10.983,8.213-15.927,3.27l-10.857-10.857
	c-3.978-3.978-6.56-9.141-7.355-14.711l-5.331-37.317C174.817,199.714,165.922,192,155.429,192v48.047
	c0,15.631,7.985,30.177,21.173,38.569l49.947,31.785c8.985,5.718,19.217,8.577,29.451,8.577v-72.121H224.915z"/>
<path style="fill:#54546F;" d="M144.961,322.792l-92.738,24.73c-20.013,5.336-33.936,23.459-33.936,44.17v102.022
	c0,10.099,8.186,18.286,18.286,18.286h155.429l-34.544-181.357C156.362,324.894,150.615,321.283,144.961,322.792z"/>
<path style="fill:#4C4C67;" d="M75.742,376.259l84.441-31.297l-2.728-14.319c-1.095-5.75-6.841-9.359-12.496-7.851l-92.741,24.731
	c-20.009,5.336-33.933,23.458-33.933,44.168v102.023c0,10.099,8.186,18.286,18.286,18.286h18.286V406.273
	C54.858,392.886,63.189,380.912,75.742,376.259z"/>
<path style="fill:#444460;" d="M92.05,402.634l-60.854-42.6c-2.127,2.206-3.999,4.618-5.643,7.201l61.256,42.89
	c11.482,8.026,18.335,21.186,18.335,35.205V512h9.143v-66.67C114.286,428.33,105.974,412.366,92.05,402.634z"/>
<path style="fill:#54546F;" d="M367.041,322.792l92.738,24.73c20.011,5.336,33.935,23.459,33.935,44.17v102.022
	c0,10.099-8.186,18.286-18.286,18.286H320.001l34.544-181.357C355.639,324.894,361.386,321.283,367.041,322.792z"/>
<path style="fill:#444460;" d="M419.951,402.634l60.854-42.6c2.127,2.206,3.999,4.618,5.643,7.201l-61.256,42.89
	c-11.482,8.026-18.335,21.186-18.335,35.205V512h-9.143v-66.67C397.715,428.33,406.027,412.366,419.951,402.634z"/>
<path style="fill:#8D6047;" d="M335.7,210.102l-5.331,37.317c-0.795,5.57-3.377,10.733-7.355,14.711l-10.857,10.857
	c-4.944,4.942-13.331,3.221-15.927-3.27l-9.143-22.859h-31.086h-31.086l-9.144,22.859c-2.595,6.491-10.983,8.213-15.927,3.27
	l-10.857-10.857c-3.978-3.978-6.56-9.141-7.355-14.711l-5.331-37.317C174.817,199.714,165.922,192,155.429,192v48.047
	c0,15.631,7.985,30.177,21.173,38.569l49.947,31.785c8.985,5.718,19.217,8.577,29.451,8.577s20.466-2.859,29.451-8.577
	l49.947-31.785c13.187-8.392,21.173-22.938,21.173-38.569V192C346.079,192,337.185,199.714,335.7,210.102z"/>
<g>
	<path style="fill:#744B3A;" d="M256.001,238.594c-26.095-5.714-45.714,18.286-45.714,18.286s24.286,13.714,45.714,0"/>
	<path style="fill:#744B3A;" d="M256.001,238.594c26.095-5.714,45.714,18.286,45.714,18.286s-24.286,13.714-45.714,0"/>
	<path style="fill:#744B3A;" d="M237.406,315.586c0.001,0.001,0.001,0.001,0.002,0.001c-14.039-10.349-24.845-26.12-32.429-39.969
		c-1.854-0.335-3.654-1.15-5.137-2.632l-10.857-10.857c-3.978-3.978-6.56-9.141-7.355-14.711l-5.331-37.317
		C174.817,199.714,165.922,192,155.429,192v48.047c0,15.631,7.985,30.177,21.173,38.569l49.947,31.785
		c1.814,1.154,3.71,2.109,5.615,3.03C233.885,314.227,235.635,314.946,237.406,315.586z"/>
</g>
<g>
	<path style="fill:#4C4C67;" d="M354.545,330.643L320.001,512h27.429l7.975-183.406C355.106,329.273,354.69,329.881,354.545,330.643
		z"/>
	<polygon style="fill:#4C4C67;" points="114.286,445.33 128.001,512 114.286,512 	"/>
	<polygon style="fill:#4C4C67;" points="406.858,445.33 420.572,512 406.858,512 	"/>
</g>
<g>
</g>
<g>
</g>
<g>
</g>
<g>
</g>
<g>
</g>
<g>
</g>
<g>
</g>
<g>
</g>
<g>
</g>
<g>
</g>
<g>
</g>
<g>
</g>
<g>
</g>
<g>
</g>
<g>
</g>
</svg>
