<?xml version="1.0" encoding="iso-8859-1"?>
<!-- Generator: Adobe Illustrator 19.0.0, SVG Export Plug-In . SVG Version: 6.00 Build 0)  -->
<svg version="1.1" id="Layer_1" xmlns="http://www.w3.org/2000/svg" xmlns:xlink="http://www.w3.org/1999/xlink" x="0px" y="0px"
	 viewBox="0 0 512 512" style="enable-background:new 0 0 512 512;" xml:space="preserve">
<path style="fill:#5B362C;" d="M367.592,390.982l55.855-9.309c0,0-37.236-59.345-37.236-111.709V134.009
	c0-70.175-53.929-130.559-124.027-133.86C187.34-3.376,125.555,56.261,125.555,130.327V204.8c0,96.582-77.964,76.8-55.855,260.655
	h186.182l4.031-106.334l106.063,18.938L367.592,390.982z"/>
<path style="fill:#472323;" d="M153.482,225.795c0,61.623-68.655,81.404-65.164,155.877c2.669,56.955,148.945,9.309,148.945,9.309
	V260.655L153.482,225.795z"/>
<path style="fill:#FFC69F;" d="M311.737,292.367v-41.022H200.028v41.022c0,11.835-7.991,22.179-19.443,25.166l-90.097,23.503
	c-28.693,7.486-30.096,33.4-30.096,63.054v42.746c0,10.283,8.335,18.618,18.618,18.618h176.873h176.873
	c10.283,0,18.618-8.335,18.618-18.618V404.09c0-29.654-1.403-55.568-30.096-63.054l-90.097-23.503
	C319.728,314.546,311.737,304.202,311.737,292.367z"/>
<path style="fill:#FFB98F;" d="M311.737,260.655l-6.206-9.309H200.028v41.023c0,11.834-7.991,22.178-19.443,25.166l-17.557,4.58
	C267.408,338.773,306.501,277.527,311.737,260.655z"/>
<path style="fill:#FFD5B2;" d="M336.726,265.064l-50.857,32.363c-18.296,11.643-41.678,11.643-59.974,0l-50.857-32.363
	c-13.426-8.543-21.556-23.354-21.556-39.268V121.018c0-56.554,45.846-102.4,102.4-102.4l0,0c56.554,0,102.4,45.846,102.4,102.4
	v104.776C358.282,241.708,350.152,256.519,336.726,265.064z"/>
<path style="fill:#FFC69F;" d="M236.954,302.707c-20.207-14.893-33.976-40.901-40.94-56.67c-3.536-8.008-5.296-16.643-5.296-25.399
	V74.473l-30.457,10.153c-4.314,11.322-6.779,23.557-6.779,36.393v104.777c0,15.914,8.13,30.725,21.556,39.268l50.857,32.363
	C229.406,299.661,233.14,301.329,236.954,302.707z"/>
<path style="fill:#895438;" d="M421.277,341.036l-65.896-17.189c-1.165,28.186-10.291,51.01-29.432,73.512
	c-19.619,23.064-47.402,39.667-78.463,35.265c-54.671-7.747-89.469-56.605-90.536-108.923L90.49,341.037
	c-28.694,7.484-30.097,33.4-30.097,63.055v89.289c0,10.282,8.335,18.618,18.618,18.618h353.745c10.282,0,18.618-8.336,18.618-18.618
	v-89.293C451.373,374.435,449.97,348.521,421.277,341.036z"/>
<path style="fill:#C2B495;" d="M125.555,512H69.701c-10.283,0-18.618-8.335-18.618-18.618v-102.4h74.473V512z"/>
<g>
	<polygon style="fill:#B6997D;" points="125.673,512 116.364,512 97.745,437.527 125.673,446.836 	"/>
	<polygon style="fill:#B6997D;" points="51.2,437.527 125.555,465.455 125.673,437.527 51.2,400.291 	"/>
</g>
<path style="fill:#895438;" d="M153.482,465.455L23.206,404.659c-5.005-2.335-6.888-8.49-4.046-13.225l12.836-21.395
	c6.266-10.445,16.377-18.017,28.163-21.091l102.868-26.836L153.482,465.455z"/>
<path style="fill:#C2B495;" d="M386.445,512h55.618c10.283,0,18.618-8.335,18.618-18.618v-102.4h-74.237V512z"/>
<polygon style="fill:#B6997D;" points="414.255,428.218 404.945,512 386.445,512 386.327,428.218 "/>
<path style="fill:#895438;" d="M358.518,465.455l130.276-60.795c5.005-2.335,6.888-8.49,4.046-13.225l-12.836-21.395
	c-6.266-10.445-16.377-18.017-28.163-21.091l-102.868-26.836L358.518,465.455z"/>
<g>
	<path style="fill:#472323;" d="M209.337,195.491L209.337,195.491c-5.141,0-9.309-4.168-9.309-9.309v-9.309
		c0-5.141,4.168-9.309,9.309-9.309l0,0c5.141,0,9.309,4.168,9.309,9.309v9.309C218.646,191.323,214.478,195.491,209.337,195.491z"/>
	<path style="fill:#472323;" d="M302.428,195.491L302.428,195.491c-5.141,0-9.309-4.168-9.309-9.309v-9.309
		c0-5.141,4.168-9.309,9.309-9.309l0,0c5.141,0,9.309,4.168,9.309,9.309v9.309C311.737,191.323,307.569,195.491,302.428,195.491z"/>
</g>
<path style="fill:#794531;" d="M380.247,91.29C363.656,38.386,314.259,0,255.882,0c-71.978,0-130.327,58.351-130.327,130.327v37.236
	C187.615,159.806,310.961,134.206,380.247,91.29z"/>
<path style="fill:#FFFFFF;" d="M224.776,232.727c-5.587,0-8.201,7.7-4.197,12.127c8.838,9.772,20.891,15.8,34.199,15.8
	s25.361-6.028,34.2-15.8c4.004-4.426,1.389-12.127-4.197-12.127H224.776z"/>
<path style="fill:#C2B495;" d="M144.533,326.939c2.522,71.848,51.385,129.207,111.467,129.207
	c60.066,0,108.919-57.327,111.466-129.146l-18.728-4.885c-2.451,59.072-43.02,106.104-92.856,106.104s-90.405-47.032-92.855-106.105
	L144.533,326.939z"/>
<path style="fill:#5B362C;" d="M318.657,16.176C300.03,5.907,278.658,0,255.882,0c-71.978,0-130.327,58.351-130.327,130.327v37.236
	C125.555,167.564,238.039,127.224,318.657,16.176z"/>
<path style="fill:#F5E1CC;" d="M256,377.626c-42.09,0-77.292-24.863-83.707-59.128c-0.472-2.527,1.344-4.945,4.058-5.382
	c2.703-0.536,5.295,1.254,5.772,3.782c5.484,29.31,37.248,51.419,73.877,51.419s68.393-22.109,73.877-51.419
	c0.472-2.537,3.055-4.328,5.772-3.782c2.714,0.436,4.53,2.854,4.058,5.382C333.292,352.762,298.09,377.626,256,377.626z"/>
<g>
	<path style="fill:#794531;" d="M163.027,322.113L90.48,341.039c-0.002,0-0.005,0.002-0.007,0.002l-30.317,7.909
		c-11.784,3.074-21.894,10.645-28.159,21.089L19.16,391.434c-2.842,4.736-0.959,10.889,4.046,13.225l18.567,8.664l0,0l24.159,11.273
		l11.626-27.127c6.845-15.97,20.191-28.251,36.674-33.745l52.124-17.375C164.563,338.566,163.375,330.481,163.027,322.113z"/>
	<polygon style="fill:#794531;" points="386.445,512 386.327,456.145 367.592,512 	"/>
</g>
<polygon style="fill:#F5E1CC;" points="256,368.873 245.676,380.509 256,415.418 266.324,380.509 "/>
<polygon style="fill:#D8C3B4;" points="256,368.873 256,415.418 245.676,380.509 "/>
<polygon style="fill:#F5E1CC;" points="277.171,369.212 271.433,380.752 288.776,403.769 288.712,374.95 "/>
<polygon style="fill:#D8C3B4;" points="277.171,369.212 288.776,403.769 271.433,380.752 "/>
<polygon style="fill:#F5E1CC;" points="294.264,359.152 293.221,370.661 315.198,384.254 305.772,360.194 "/>
<polygon style="fill:#D8C3B4;" points="294.264,359.152 315.198,384.254 293.221,370.661 "/>
<polygon style="fill:#F5E1CC;" points="316.847,344.247 317.035,355.525 339.782,366.426 328.126,344.057 "/>
<polygon style="fill:#D8C3B4;" points="316.847,344.247 339.782,366.426 317.035,355.525 "/>
<polygon style="fill:#F5E1CC;" points="234.829,369.212 240.567,380.752 223.224,403.769 223.288,374.95 "/>
<polygon style="fill:#D8C3B4;" points="234.829,369.212 223.224,403.769 240.567,380.752 "/>
<polygon style="fill:#F5E1CC;" points="217.736,359.152 218.779,370.661 196.802,384.254 206.228,360.194 "/>
<polygon style="fill:#D8C3B4;" points="217.736,359.152 196.802,384.254 218.779,370.661 "/>
<polygon style="fill:#F5E1CC;" points="195.153,344.247 194.965,355.525 172.218,366.426 183.874,344.057 "/>
<polygon style="fill:#D8C3B4;" points="195.153,344.247 172.218,366.426 194.965,355.525 "/>
<path style="fill:#B6997D;" d="M147.505,352.634l18.852-6.284c-0.861-3.738-1.581-7.539-2.119-11.422
	c-0.029-0.205-0.072-0.403-0.1-0.606c-0.535-4.009-0.939-8.069-1.11-12.207l-18.495,4.824
	C144.841,335.75,145.866,344.336,147.505,352.634z"/>
<path style="fill:#5B362C;" d="M255.882,0c-20.828,0-77.459,3.103-130.21,55.855l83.782-9.309L255.882,0z"/>
<path style="fill:#794531;" d="M256,102.4c0,0-20.945,16.291-93.091,27.927c0,0,134.042-68.884,155.748-114.152l-6.803,67.606
	L256,102.4z"/>
<path style="fill:#5B362C;" d="M386.327,176.873c0,38.787,8.145,107.055,27.927,148.945c0,0-33.164-29.091-37.236-46.545
	C372.945,261.818,386.327,155.798,386.327,176.873z"/>
<path style="fill:#F84F46;" d="M187.482,251.856L187.482,251.856c-2.226,1.286-5.073,0.522-6.358-1.704l-13.964-24.186
	c-1.286-2.226-0.522-5.073,1.704-6.358l0,0c2.226-1.286,5.073-0.522,6.358,1.704l13.964,24.186
	C190.471,247.724,189.708,250.572,187.482,251.856z"/>
<path style="fill:#FF5A4E;" d="M198.038,237.893L198.038,237.893c-2.226,1.286-5.073,0.522-6.358-1.704l-13.964-24.186
	c-1.286-2.226-0.522-5.073,1.704-6.358l0,0c2.226-1.286,5.073-0.522,6.358,1.704l13.964,24.186
	C201.027,233.761,200.264,236.608,198.038,237.893z"/>
<path style="fill:#F84F46;" d="M324.738,251.635L324.738,251.635c2.226,1.286,5.073,0.522,6.358-1.704l13.964-24.186
	c1.286-2.226,0.522-5.073-1.704-6.358l0,0c-2.226-1.286-5.073-0.522-6.358,1.704l-13.964,24.186
	C321.75,247.503,322.512,250.351,324.738,251.635z"/>
<path style="fill:#FF5A4E;" d="M314.183,237.672L314.183,237.672c2.226,1.286,5.073,0.522,6.358-1.704l13.964-24.186
	c1.286-2.226,0.522-5.073-1.704-6.358l0,0c-2.226-1.286-5.073-0.522-6.358,1.704l-13.964,24.186
	C311.194,233.539,311.956,236.387,314.183,237.672z"/>
<g>
</g>
<g>
</g>
<g>
</g>
<g>
</g>
<g>
</g>
<g>
</g>
<g>
</g>
<g>
</g>
<g>
</g>
<g>
</g>
<g>
</g>
<g>
</g>
<g>
</g>
<g>
</g>
<g>
</g>
</svg>
