<?xml version="1.0" encoding="iso-8859-1"?>
<!-- Generator: Adobe Illustrator 19.0.0, SVG Export Plug-In . SVG Version: 6.00 Build 0)  -->
<svg version="1.1" id="Layer_1" xmlns="http://www.w3.org/2000/svg" xmlns:xlink="http://www.w3.org/1999/xlink" x="0px" y="0px"
	 viewBox="0 0 512 512" style="enable-background:new 0 0 512 512;" xml:space="preserve">
<path style="fill:#2B2323;" d="M256.002,8.986c-30.316,0-108.911,23.579-125.753,125.753s-26.947,224.559-26.947,224.559h152.7
	V8.986z"/>
<path style="fill:#413934;" d="M256.002,8.986c30.316,0,108.911,23.579,125.753,125.753s26.947,224.559,26.947,224.559h-152.7
	L256.002,8.986L256.002,8.986z"/>
<path style="fill:#FFC69F;" d="M363.79,332.352l-8.521-2.841c-11.003-3.668-18.426-13.965-18.426-25.565v-25.49l8.982-8.982
	l-8.982-0.639l-80.841,35.93l-80.841-35.93l-8.982,0.639l8.982,8.982v25.49c0,11.6-7.422,21.896-18.426,25.565l-8.521,2.841
	c0,0-19.649,69.613,17.965,80.841s89.824,80.841,89.824,80.841s52.21-69.613,89.824-80.841S363.79,332.352,363.79,332.352z"/>
<path style="fill:#FFB98F;" d="M158.88,354.247c120.139,14.035,177.963-73.499,177.963-73.499l-11.942-6.603l-68.899,30.622
	l-80.841-35.93l-8.982,0.638l8.982,8.982v25.489c0,11.6-7.422,21.897-18.426,25.566l-8.521,2.84c0,0-2.356,8.489-3.874,19.939
	C148.981,352.983,153.768,353.649,158.88,354.247z"/>
<path style="fill:#FFD5B2;" d="M334.008,282.711l-49.072,31.227c-17.654,11.235-40.215,11.235-57.869,0l-49.072-31.227
	c-12.955-8.244-20.8-22.535-20.8-37.89V143.722c0-54.569,44.237-98.806,98.806-98.806l0,0c54.569,0,98.806,44.237,98.806,98.806
	v101.099C354.808,260.176,346.963,274.467,334.008,282.711z"/>
<g>
	<path style="fill:#FFC69F;" d="M354.808,179.652c-51.087-23.017-105.543-37.614-197.612-26.947l197.612-44.912V179.652z"/>
	<path style="fill:#FFC69F;" d="M237.737,319.033c-19.497-14.371-32.783-39.465-39.503-54.681c-3.412-7.727-5.11-16.059-5.11-24.507
		V98.81l-29.388,9.796c-4.162,10.925-6.541,22.73-6.541,35.115v101.1c0,15.355,7.845,29.646,20.8,37.89l49.072,31.227
		C230.455,316.094,234.058,317.705,237.737,319.033z"/>
</g>
<g>
	<path style="fill:#472323;" d="M218.95,206.599h-15.719c-0.62,0-1.123-0.503-1.123-1.123v-24.702c0-0.62,0.503-1.123,1.123-1.123
		h15.719c0.62,0,1.123,0.503,1.123,1.123v24.702C220.072,206.096,219.569,206.599,218.95,206.599z"/>
	<path style="fill:#472323;" d="M300.914,206.599L300.914,206.599c-4.961,0-8.982-4.022-8.982-8.982v-8.982
		c0-4.961,4.022-8.982,8.982-8.982l0,0c4.961,0,8.982,4.022,8.982,8.982v8.982C309.896,202.577,305.874,206.599,300.914,206.599z"/>
</g>
<path style="fill:#373F55;" d="M157.196,341.334l68.313,22.771c7.84,2.614,13.886,8.927,16.156,16.873l14.337,50.179l14.337-50.179
	c2.27-7.946,8.315-14.26,16.156-16.873l68.313-22.771L318.879,512H193.125L157.196,341.334z"/>
<polygon style="fill:#233450;" points="354.808,341.334 247.02,512 336.843,512 "/>
<path style="fill:#B1693C;" d="M225.462,251.511l-8.984,22.458c-2.55,6.377-10.79,8.068-15.647,3.212l-10.667-10.667
	c-3.908-3.908-6.445-8.98-7.226-14.453l-5.238-36.662c-1.457-10.205-10.197-17.784-20.506-17.784v47.204
	c0,15.357,7.845,29.647,20.801,37.892l49.071,31.227c8.827,5.617,18.88,8.427,28.934,8.427v-70.854h-30.539v0H225.462z"/>
<path style="fill:#23838F;" d="M146.911,326.112l-91.11,24.296c-19.66,5.242-33.339,23.048-33.339,43.395v100.231
	c0,9.922,8.043,17.965,17.965,17.965h152.7l-33.938-178.173C158.111,328.178,152.467,324.631,146.911,326.112z"/>
<path style="fill:#1D7483;" d="M78.908,378.641l82.959-30.748l-2.68-14.068c-1.076-5.649-6.721-9.195-12.277-7.714l-91.113,24.297
	c-19.659,5.242-33.338,23.048-33.338,43.394v100.232c0,9.922,8.043,17.965,17.965,17.965h17.965v-103.87
	C58.39,394.976,66.575,383.213,78.908,378.641z"/>
<path style="fill:#355F6A;" d="M94.929,404.552L35.143,362.7c-2.09,2.167-3.929,4.537-5.544,7.075l60.181,42.137
	c11.281,7.885,18.013,20.816,18.013,34.588V512h8.982v-65.5C116.775,429.798,108.608,414.114,94.929,404.552z"/>
<path style="fill:#23838F;" d="M365.093,326.112l91.11,24.296c19.66,5.242,33.339,23.048,33.339,43.395v100.231
	c0,9.922-8.043,17.965-17.965,17.965h-152.7l33.938-178.173C353.892,328.178,359.537,324.631,365.093,326.112z"/>
<path style="fill:#355F6A;" d="M417.075,404.552l59.786-41.852c2.09,2.167,3.929,4.537,5.544,7.075l-60.181,42.137
	c-11.281,7.885-18.013,20.816-18.013,34.588V512h-8.982v-65.5C395.229,429.798,403.395,414.114,417.075,404.552z"/>
<path style="fill:#6D5648;" d="M334.302,215.4l-5.238,36.662c-0.781,5.472-3.318,10.544-7.226,14.453l-10.667,10.667
	c-4.857,4.855-13.097,3.164-15.647-3.212l-8.984-22.458h-30.539h-30.54l-8.984,22.458c-2.55,6.377-10.79,8.068-15.647,3.212
	l-10.667-10.667c-3.908-3.908-6.445-8.98-7.226-14.453l-5.238-36.662c-1.457-10.205-10.197-17.784-20.506-17.784v47.204
	c0,15.356,7.845,29.647,20.801,37.892l49.071,31.227c8.827,5.617,18.88,8.427,28.934,8.427c10.055,0,20.107-2.809,28.934-8.427
	l49.071-31.227c12.956-8.245,20.801-22.536,20.801-37.892v-47.204C344.5,197.616,335.76,205.195,334.302,215.4z"/>
<g>
	<path style="fill:#5E433A;" d="M256.002,243.392c-25.637-5.614-44.912,17.965-44.912,17.965s23.859,13.474,44.912,0"/>
	<path style="fill:#5E433A;" d="M256.002,243.392c25.637-5.614,44.912,17.965,44.912,17.965s-23.859,13.474-44.912,0"/>
	<path style="fill:#5E433A;" d="M237.734,319.032c0.001,0.001,0.001,0.001,0.002,0.001c-13.792-10.167-24.408-25.662-31.859-39.268
		c-1.821-0.329-3.59-1.13-5.047-2.586l-10.667-10.667c-3.908-3.908-6.445-8.98-7.226-14.453l-5.238-36.662
		c-1.457-10.205-10.197-17.784-20.506-17.784v47.204c0,15.356,7.845,29.647,20.801,37.892l49.071,31.227
		c1.782,1.134,3.645,2.072,5.516,2.977C234.275,317.698,235.994,318.405,237.734,319.032z"/>
</g>
<g>
	<path style="fill:#1D7483;" d="M352.816,333.825L318.879,512h26.947l7.835-180.186C353.368,332.48,352.959,333.076,352.816,333.825
		z"/>
	<polygon style="fill:#1D7483;" points="116.775,446.5 130.249,512 116.775,512 	"/>
	<polygon style="fill:#1D7483;" points="404.211,446.5 417.685,512 404.211,512 	"/>
</g>
<g>
	<polygon style="fill:#23233A;" points="157.196,238.272 297.019,142.142 286.844,127.336 157.196,216.469 	"/>
	<path style="fill:#23233A;" d="M417.685,98.81c-39.098-15.897-72.264-61.326-98.806-80.841
		c-25.45-18.714-49.777-17.965-62.877-17.965s-37.426-0.749-62.877,17.965c-26.542,19.515-59.708,64.945-98.806,80.841
		c-51.087,20.772-32.935,88.326,26.947,71.859c59.882-16.468,75.601-26.614,134.736-26.614s74.854,10.146,134.736,26.614
		C450.62,187.136,468.772,119.582,417.685,98.81z"/>
</g>
<g>
	<path style="fill:#FFB432;" d="M290.901,84.231l-3.013-1.288l1.287-3.014c0.634-1.484-0.055-3.2-1.539-3.834
		c-1.483-0.634-3.201,0.055-3.834,1.539l-1.952,4.57l-62.861,25.233l-4.573-1.954c-1.483-0.634-3.201,0.055-3.834,1.539
		c-0.634,1.484,0.055,3.2,1.539,3.834l3.012,1.288l-1.287,3.014c-0.634,1.484,0.055,3.2,1.539,3.834
		c0.742,0.317,1.543,0.303,2.237,0.025s1.282-0.823,1.598-1.564l1.966-4.601l62.815-25.215l4.604,1.967
		c0.742,0.317,1.543,0.303,2.237,0.025s1.282-0.823,1.598-1.564C293.075,86.581,292.385,84.865,290.901,84.231z"/>
	<path style="fill:#FFB432;" d="M292.441,107.022c-0.633-1.484-2.351-2.174-3.834-1.539l-4.581,1.957l-62.851-25.228l-1.956-4.577
		c-0.633-1.484-2.351-2.174-3.834-1.539c-1.484,0.634-2.174,2.35-1.539,3.834l1.287,3.014l-3.012,1.288
		c-1.484,0.634-2.174,2.35-1.539,3.834c0.316,0.741,0.904,1.286,1.598,1.564c0.694,0.279,1.494,0.292,2.237-0.025l4.597-1.964
		l62.827,25.219l1.963,4.594c0.315,0.741,0.904,1.286,1.598,1.564s1.494,0.292,2.237-0.025c1.484-0.634,2.174-2.35,1.539-3.834
		l-1.287-3.014l3.013-1.288C292.386,110.222,293.076,108.507,292.441,107.022z"/>
</g>
<g>
	<path style="fill:#FFC83C;" d="M265.985,75.632c-1.427,1.968-3.195,3.66-5.404,5.085c-4.194,2.704-9.498,2.936-14.222,1.86
		c-3.755-0.856-7.491-3.645-9.902-6.822l-5.383,1.077v8.409c0,2.087,0.893,4.074,2.452,5.46l8.622,7.664
		c1.337,1.188,3.064,1.845,4.854,1.845h9.055c1.789,0,3.517-0.657,4.854-1.845l8.622-7.664c1.56-1.387,2.452-3.374,2.452-5.46
		v-8.409L265.985,75.632z M241.301,86.643c0,1.037-0.981,1.878-2.192,1.878c-1.21,0-2.192-0.841-2.192-1.878v-5.01
		c0-1.037,0.981-1.878,2.192-1.878c1.21,0,2.192,0.841,2.192,1.878V86.643z M266.14,86.643c0,1.037-0.981,1.878-2.192,1.878
		c-1.21,0-2.192-0.841-2.192-1.878v-5.01c0-1.037,0.981-1.878,2.192-1.878c1.21,0,2.192,0.841,2.192,1.878V86.643z"/>
	<path style="fill:#FFC83C;" d="M252.004,35.927c-13.92-0.262-25.313,11.563-25.312,25.484V73.91c0,3.228,2.616,5.844,5.844,5.844
		h5.844c1.613,0,2.923,4.231,2.923,5.844s1.308,2.922,2.923,2.922h14.611c1.613,0,2.923-1.308,2.923-2.922v-2.923
		c0-1.613,1.308-2.922,2.922-2.922h5.844c3.228,0,5.844-2.616,5.844-5.844V60.76C276.367,47.201,265.502,36.18,252.004,35.927z
		 M244.946,73.519l-6.138,1.674c-3.16,0.861-6.274-1.518-6.274-4.792v-1.679c0-2.744,2.224-4.968,4.967-4.968h6.138
		c2.743,0,4.967,2.224,4.967,4.968v0.004C248.607,70.967,247.107,72.93,244.946,73.519z M253.948,82.677h-4.839
		c-0.979,0-1.681-0.943-1.4-1.881l2.42-8.065c0.417-1.388,2.383-1.388,2.799,0l2.42,8.065
		C255.629,81.734,254.927,82.677,253.948,82.677z M270.523,70.401c0,3.275-3.114,5.654-6.273,4.792l-6.137-1.674
		c-2.161-0.589-3.66-2.553-3.66-4.792v-0.004c0-2.744,2.224-4.968,4.967-4.968h6.137c2.743,0,4.967,2.224,4.967,4.968v1.679
		L270.523,70.401L270.523,70.401z"/>
</g>
<circle style="fill:#2E2E45;" cx="215.581" cy="193.12" r="31.438"/>
<path style="fill:#FFC83C;" d="M447.497,136.82c-0.135-4.426-1.1-8.912-2.924-13.242c-10.742-7.449-21.626-13.329-29.344-16.447
	c-27.116-10.961-50.749-34.282-71.6-54.858c-10.719-10.578-20.845-20.57-29.735-27.067C291.702,8.982,270.502,8.982,259.112,8.982
	l-1.627,0.002l-1.483,0.002l-1.484-0.002l-1.627-0.002c-11.39,0-32.59,0-54.782,16.223c-8.89,6.498-19.016,16.491-29.735,27.067
	c-20.851,20.575-44.484,43.898-71.6,54.858c-7.718,3.119-18.603,8.999-29.344,16.448c-1.822,4.331-2.788,8.816-2.923,13.241
	c11.473-9.072,24.837-16.99,35.67-21.368c28.791-11.638,53.104-35.63,74.577-56.818c10.47-10.332,20.36-20.091,28.708-26.191
	c19.804-14.477,38.349-14.477,49.417-14.477l1.626,0.002l1.51,0.002l1.483-0.002l1.627-0.002c11.082,0,29.62,0.006,49.419,14.478
	c8.348,6.101,18.236,15.86,28.728,26.212c21.452,21.169,45.766,45.161,74.556,56.799C422.659,119.83,436.024,127.748,447.497,136.82
	z"/>
<g>
</g>
<g>
</g>
<g>
</g>
<g>
</g>
<g>
</g>
<g>
</g>
<g>
</g>
<g>
</g>
<g>
</g>
<g>
</g>
<g>
</g>
<g>
</g>
<g>
</g>
<g>
</g>
<g>
</g>
</svg>
